<svg width="21" height="17" viewBox="0 0 21 17" fill="none" xmlns="http://www.w3.org/2000/svg">
<path d="M17.1787 8.45447C19.2661 8.45447 20.9946 6.73328 20.9946 4.63123C20.9946 2.54382 19.2661 0.815308 17.1787 0.815308C15.084 0.815308 13.3628 2.54382 13.3628 4.63123C13.3628 6.73328 15.084 8.45447 17.1787 8.45447ZM6.94678 13.2152H15.4575C15.853 13.2152 16.2046 12.9222 16.2046 12.4755C16.2046 12.036 15.853 11.743 15.4575 11.743H7.15186C6.85156 11.743 6.66846 11.5306 6.61719 11.2157L6.50732 10.4613H15.5454C16.2925 10.4613 16.7979 10.1683 17.0981 9.64099L17.1641 9.51648C14.4395 9.47253 12.2935 7.30457 12.2935 4.63123C12.2935 4.40417 12.3081 4.17712 12.3374 3.95007H5.57715L5.47461 3.2616C5.36475 2.5658 5.07178 2.21423 4.2002 2.21423H1.74658C1.31445 2.21423 0.940918 2.58777 0.940918 3.02722C0.940918 3.474 1.31445 3.84021 1.74658 3.84021H3.89258L4.99854 11.3622C5.16699 12.5194 5.78223 13.2152 6.94678 13.2152ZM15.2817 5.18054C14.9888 5.18054 14.7397 4.92419 14.7324 4.63123C14.7397 4.34558 14.9888 4.08923 15.2817 4.08923H19.0757C19.376 4.08923 19.6177 4.33826 19.6177 4.63123C19.6177 4.92419 19.376 5.18054 19.0757 5.18054H15.2817ZM6.21436 15.6249C6.21436 16.3793 6.82227 16.9725 7.56934 16.9725C8.31641 16.9725 8.91699 16.3793 8.91699 15.6249C8.91699 14.8778 8.31641 14.2772 7.56934 14.2772C6.82227 14.2772 6.21436 14.8778 6.21436 15.6249ZM12.9087 15.6249C12.9087 16.3793 13.5166 16.9725 14.2637 16.9725C15.0107 16.9725 15.6113 16.3793 15.6113 15.6249C15.6113 14.8778 15.0107 14.2772 14.2637 14.2772C13.5166 14.2772 12.9087 14.8778 12.9087 15.6249Z" fill="#F54243"/>
</svg>
