<svg width="18" height="11" viewBox="0 0 18 11" fill="none" xmlns="http://www.w3.org/2000/svg">
<path d="M9.40146 9.60437L9.39389 9.61213L9.38666 9.62022C9.32478 9.68937 9.22142 9.73682 9.10498 9.73682C8.99301 9.73682 8.89373 9.6986 8.79619 9.60177L1.24332 1.87325C1.15477 1.77845 1.11865 1.68352 1.11865 1.58447C1.11865 1.34558 1.28282 1.18604 1.50732 1.18604C1.63083 1.18604 1.72677 1.2325 1.78712 1.29209L8.74777 8.39917L9.10523 8.76416L9.46244 8.39892L16.407 1.29831C16.4852 1.22748 16.5865 1.18604 16.6929 1.18604C16.9174 1.18604 17.0815 1.34558 17.0815 1.58447C17.0815 1.68636 17.0436 1.77662 16.9643 1.85592L16.9643 1.85589L16.9601 1.86023L9.40146 9.60437Z" fill="black" stroke="black"/>
</svg>
