<?xml version="1.0" standalone="no"?>
<!DOCTYPE svg PUBLIC "-//W3C//DTD SVG 20010904//EN"
 "http://www.w3.org/TR/2001/REC-SVG-20010904/DTD/svg10.dtd">
<svg version="1.0" xmlns="http://www.w3.org/2000/svg"
 width="512.000000pt" height="512.000000pt" viewBox="0 0 512.000000 512.000000"
 preserveAspectRatio="xMidYMid meet">
<metadata>
Created by potrace 1.11, written by Peter Selinger 2001-2013
</metadata>
<g transform="translate(0.000000,512.000000) scale(0.100000,-0.100000)"
fill="#000000" stroke="none">
<path d="M2310 5109 c-502 -55 -974 -249 -1355 -556 -129 -104 -340 -321 -433
-445 -265 -354 -434 -758 -498 -1193 -22 -147 -29 -428 -15 -575 42 -433 180
-833 405 -1174 414 -629 1047 -1032 1791 -1142 147 -22 428 -29 575 -15 433
42 833 180 1174 405 629 414 1032 1047 1142 1791 22 147 29 428 15 575 -51
524 -238 988 -558 1385 -104 129 -321 340 -445 433 -354 265 -755 432 -1193
498 -121 18 -487 26 -605 13z m1024 -1044 c231 -49 410 -231 493 -502 23 -77
26 -106 27 -228 0 -166 -13 -224 -81 -365 -40 -81 -61 -109 -143 -191 l-96
-96 51 -29 c452 -252 522 -799 156 -1233 -82 -98 -246 -215 -361 -257 -168
-61 -112 -58 -962 -61 -428 -2 -778 -1 -778 3 0 3 113 158 251 345 l250 339
354 0 c338 0 357 1 412 21 118 45 193 160 193 297 0 83 -24 139 -76 178 l-37
29 -439 3 c-241 1 -438 6 -438 10 0 4 51 135 113 292 l112 285 230 5 c147 3
240 10 257 17 48 21 115 91 139 146 18 40 24 70 24 132 0 92 -16 128 -78 179
l-39 31 -164 3 c-90 2 -164 6 -164 10 0 3 52 140 115 304 64 165 120 310 125
324 l10 24 237 0 c170 0 258 -5 307 -15z m-787 -2 c-5 -7 -228 -594 -570
-1498 -69 -181 -128 -338 -132 -347 -6 -16 6 -18 157 -20 l165 -3 -476 -677
c-261 -372 -476 -676 -478 -675 -2 3 268 1041 283 1090 5 16 -6 17 -140 17
-113 0 -146 3 -146 13 0 7 92 482 205 1056 113 574 205 1045 205 1047 0 2 210
4 466 4 256 0 463 -3 461 -7z"/>
</g>
</svg>
