<svg width="41" height="40" viewBox="0 0 41 40" fill="none" xmlns="http://www.w3.org/2000/svg">
<path d="M8.34326 11.1328C8.34326 11.5332 8.67529 11.875 9.06592 11.875H12.3667L13.9292 22.5977C14.1343 23.9844 14.8667 24.8535 16.2827 24.8535H27.6792C28.0601 24.8535 28.3921 24.541 28.3921 24.1211C28.3921 23.7012 28.0601 23.3887 27.6792 23.3887H16.4487C15.8921 23.3887 15.5503 22.998 15.4624 22.4023L15.3062 21.377H27.6987C29.1245 21.377 29.8569 20.498 30.062 19.1016L30.8433 13.9355C30.8628 13.8086 30.8823 13.6523 30.8823 13.5645C30.8823 13.0957 30.5308 12.7734 29.9937 12.7734H14.0562L13.8608 11.5332C13.7632 10.7812 13.4897 10.4004 12.4937 10.4004H9.06592C8.67529 10.4004 8.34326 10.7422 8.34326 11.1328ZM15.4624 28.0176C15.4624 28.9062 16.1655 29.5996 17.0542 29.5996C17.9331 29.5996 18.6362 28.9062 18.6362 28.0176C18.6362 27.1387 17.9331 26.4355 17.0542 26.4355C16.1655 26.4355 15.4624 27.1387 15.4624 28.0176ZM24.5933 28.0176C24.5933 28.9062 25.3062 29.5996 26.1851 29.5996C27.0737 29.5996 27.7769 28.9062 27.7769 28.0176C27.7769 27.1387 27.0737 26.4355 26.1851 26.4355C25.3062 26.4355 24.5933 27.1387 24.5933 28.0176Z" fill="#2AC1BC"/>
</svg>
