<svg width="41" height="40" viewBox="0 0 41 40" fill="none" xmlns="http://www.w3.org/2000/svg">
<path d="M26.46 16.2988L30.1318 14.209C29.9854 14.0625 29.8096 13.9453 29.5947 13.8281L22.7002 9.90234C22.1045 9.56055 21.5088 9.375 20.9326 9.375C20.3467 9.375 19.751 9.56055 19.1553 9.90234L17.1729 11.0254L26.46 16.2988ZM20.9326 19.4336L25.1025 17.0703L15.8545 11.7871L12.2705 13.8281C12.0557 13.9453 11.8799 14.0625 11.7236 14.209L20.9326 19.4336ZM21.5967 30.625C21.665 30.6055 21.7236 30.5762 21.792 30.5371L29.4385 26.1816C30.3467 25.6641 30.835 25.1367 30.835 23.7207V16.1133C30.835 15.8203 30.8154 15.5859 30.7568 15.3711L21.5967 20.6055V30.625ZM20.2588 30.625V20.6055L11.0986 15.3711C11.04 15.5859 11.0205 15.8203 11.0205 16.1133V23.7207C11.0205 25.1367 11.5186 25.6641 12.417 26.1816L20.0732 30.5371C20.1318 30.5762 20.1904 30.6055 20.2588 30.625Z" fill="#9A47ED"/>
</svg>
